<svg width="239" height="68" viewBox="0 0 239 68" fill="none" xmlns="http://www.w3.org/2000/svg">
<path d="M68 34.2067C68 51.2786 55.5503 65.4316 39.2983 68V44.1608H47.2005L48.705 34.2979H39.2983V27.8984C39.2983 25.1989 40.613 22.5707 44.8233 22.5707H49.0988V14.173C49.0988 14.173 45.2172 13.5059 41.5083 13.5059C33.762 13.5059 28.7017 18.2293 28.7017 26.7781V34.295H20.0912V44.158H28.7017V67.9971C12.4525 65.4259 0 51.2758 0 34.2067C0 15.316 15.2235 0 34 0C52.7765 0 68 15.3132 68 34.2067Z" fill="white"/>
<path d="M119.5 0C100.445 0 85 15.2209 85 34C85 52.7791 100.445 68 119.5 68C138.555 68 154 52.7791 154 34C154 15.2209 138.555 0 119.5 0ZM108.99 51.8302H100.585V25.2035H108.99V51.8302ZM104.777 21.5465C102.09 21.5465 99.9032 19.3919 99.9032 16.743C99.9032 14.0942 102.09 11.9395 104.777 11.9395C107.465 11.9395 109.651 14.0942 109.651 16.743C109.651 19.3919 107.465 21.5465 104.777 21.5465ZM140.421 51.8302H132.036V38.8826C132.036 35.7988 131.976 31.8256 127.664 31.8256C123.291 31.8256 122.629 35.186 122.629 38.6651V51.85H114.245V25.2035H122.308V28.8407H122.408C124.053 26.0733 127.102 24.4128 130.351 24.5314C138.856 24.5314 140.421 30.0465 140.421 37.2221V51.8302Z" fill="white"/>
<path d="M205 6.12567C214.078 6.12567 215.155 6.15967 218.739 6.324C222.445 6.494 226.261 7.33833 228.962 10.0385C231.687 12.7642 232.506 16.5438 232.676 20.2612C232.84 23.8453 232.874 24.922 232.874 34C232.874 43.078 232.84 44.1547 232.676 47.7388C232.509 51.425 231.645 55.2783 228.962 57.9615C226.236 60.6872 222.459 61.506 218.739 61.676C215.155 61.8403 214.078 61.8743 205 61.8743C195.922 61.8743 194.845 61.8403 191.261 61.676C187.603 61.5088 183.699 60.6248 181.038 57.9615C178.327 55.25 177.494 51.4335 177.324 47.7388C177.16 44.1547 177.126 43.078 177.126 34C177.126 24.922 177.16 23.8453 177.324 20.2612C177.491 16.5892 178.364 12.7132 181.038 10.0385C183.758 7.3185 187.552 6.494 191.261 6.324C194.845 6.15967 195.922 6.12567 205 6.12567ZM205 0C195.766 0 194.607 0.0396667 190.981 0.204C185.725 0.444833 180.506 1.90683 176.706 5.70633C172.893 9.52 171.445 14.7277 171.204 19.9807C171.04 23.6073 171 24.7662 171 34C171 43.2338 171.04 44.3927 171.204 48.0193C171.445 53.2695 172.912 58.5027 176.706 62.2937C180.517 66.1045 185.733 67.5552 190.981 67.796C194.607 67.9603 195.766 68 205 68C214.234 68 215.393 67.9603 219.019 67.796C224.272 67.5552 229.497 66.0903 233.294 62.2937C237.11 58.4772 238.555 53.2723 238.796 48.0193C238.96 44.3927 239 43.2338 239 34C239 24.7662 238.96 23.6073 238.796 19.9807C238.555 14.7248 237.09 9.503 233.294 5.70633C229.488 1.90117 224.258 0.442 219.019 0.204C215.393 0.0396667 214.234 0 205 0Z" fill="white"/>
<path d="M205 16.541C195.358 16.541 187.541 24.3582 187.541 34C187.541 43.6419 195.358 51.459 205 51.459C214.642 51.459 222.459 43.6419 222.459 34C222.459 24.3582 214.642 16.541 205 16.541ZM205 45.3334C198.741 45.3334 193.667 40.2589 193.667 34C193.667 27.7412 198.741 22.6667 205 22.6667C211.259 22.6667 216.333 27.7412 216.333 34C216.333 40.2589 211.259 45.3334 205 45.3334Z" fill="white"/>
<path d="M223.15 19.9297C225.404 19.9297 227.23 18.103 227.23 15.8497C227.23 13.5963 225.404 11.7697 223.15 11.7697C220.897 11.7697 219.07 13.5963 219.07 15.8497C219.07 18.103 220.897 19.9297 223.15 19.9297Z" fill="white"/>
</svg>
