<svg width="67" height="53" viewBox="0 0 67 53" fill="none" xmlns="http://www.w3.org/2000/svg">
<path d="M54.4748 9.56886L54.4088 9.32266C53.4313 5.70219 50.3992 2.79296 45.9774 1.23311C41.5557 -0.326738 36.1055 -0.409843 30.8222 1.00203L16.5905 4.81778C11.3096 6.23834 6.63193 9.03689 3.58365 12.5996C0.535356 16.1622 -0.6347 20.1982 0.330127 23.822L3.92415 37.2268C4.77648 40.4378 7.05768 43.1831 10.4542 45.0854L12.4301 46.197L12.8262 47.6742C13.3831 49.7436 15.1156 51.4065 17.643 52.2972C20.1703 53.1879 23.2857 53.2337 26.3041 52.4244L51.9146 45.5578C54.9343 44.7482 57.6098 43.1491 59.3524 41.1124C61.0951 39.0756 61.7622 36.768 61.207 34.6973L60.8717 33.4466L62.0769 32.1048C63.9174 30.0454 65.2245 27.813 65.9195 25.5422C66.6144 23.2714 66.6829 21.0092 66.1207 18.8919L65.035 14.8427C64.568 13.1131 63.2777 11.6573 61.366 10.7032C59.4543 9.74914 57.0291 9.35066 54.47 9.57015L54.4748 9.56886ZM50.8724 41.6518L25.2572 48.5197C24.5098 48.7201 23.7426 48.8176 22.9994 48.8066C22.2563 48.7956 21.5517 48.6763 20.926 48.4556C19.6624 48.0098 18.7965 47.1778 18.519 46.1426L55.5201 36.222C55.6575 36.7347 55.6464 37.2819 55.4872 37.8323C55.328 38.3827 55.0239 38.9255 54.5923 39.4297C54.1607 39.9339 53.61 40.3897 52.9718 40.771C52.3335 41.1523 51.6201 41.4516 50.8724 41.6518ZM60.4337 20.4166C60.8544 22.0049 60.8023 23.7016 60.2805 25.4046C59.7588 27.1077 58.7782 28.7818 57.3977 30.3263L55.9715 31.9156L16.2442 42.5671L14.5132 41.5939C11.9647 40.1653 10.2534 38.1044 9.61413 35.6942L7.83406 29.055C9.74756 29.2792 11.8083 29.1146 13.807 28.5777L33.7305 23.2359C34.4853 23.0336 35.154 22.6339 35.5896 22.1248C36.0251 21.6157 36.1919 21.039 36.0531 20.5214C35.9143 20.0038 35.4814 19.5878 34.8496 19.3649C34.2178 19.142 33.4388 19.1305 32.684 19.3329L12.7629 24.674C12.0151 24.8747 11.2475 24.9725 10.5039 24.9616C9.76034 24.9507 9.05539 24.8314 8.42935 24.6105C7.80331 24.3897 7.26846 24.0716 6.85537 23.6745C6.44228 23.2773 6.15905 22.8089 6.02186 22.296C5.33257 19.7074 6.16833 16.8244 8.3458 14.2795C10.5233 11.7346 13.8647 9.73554 17.637 8.72087L31.8687 4.90511C35.6427 3.89652 39.5359 3.95585 42.6945 5.07009C45.853 6.18432 48.0189 8.26249 48.7171 10.8487L48.7831 11.0949C46.4575 12.1851 44.557 13.7433 43.3789 15.5258C42.2009 17.3083 41.8119 19.2143 42.2729 20.9456L43.8426 26.8002C43.9814 27.3178 44.4143 27.7338 45.0461 27.9567C45.6779 28.1796 46.4569 28.1911 47.2117 27.9887C47.9665 27.7864 48.6352 27.3867 49.0708 26.8776C49.5064 26.3685 49.6731 25.7918 49.5343 25.2742L47.9646 19.4195C47.687 18.3842 48.0206 17.2304 48.8919 16.212C49.7632 15.1936 51.101 14.3941 52.6108 13.9893C54.1207 13.5845 55.679 13.6075 56.9429 14.0534C58.2069 14.4993 59.0729 15.3314 59.3505 16.3668L60.4337 20.4166Z" fill="#CF1616"/>
</svg>
